<svg xmlns="http://www.w3.org/2000/svg" viewBox="0 0 709.44 894.4"  xmlns:v="https://vecta.io/nano"><path d="M23.98 206.13c-7.41-4.6 12.48-28.25 9.72-72.36-2-32.09-14-43.2-6.48-67 5.59-17.62 17.76-28.99 24.84-35.6 3.88-3.63 20.18-18.29 47.52-25.92 45.65-12.73 104.48-.88 109.08 20.52 3.47 16.22-24.69 35.19-27 36.72-23 15.2-37.53 6.6-56.16 19.44-17.2 11.85-14.82 26.05-29.16 54-22.64 44.14-63.04 75.98-72.36 70.2z" fill="#ffbdbf"/><path d="M227.06 117.57c-1.47-1.78-12.26-14.85-20.52-11.88-7.83 2.81-10.48 19-5.4 30.24.9 2 6.27 13.86 17.28 14 6.93.11 13.87-4.44 16.2-10.8 3.11-8.59-3.62-16.76-7.56-21.56z" fill="#7cbdbf"/><path d="M34.78 294.69c20.61-17.24 53.29-13.55 68-11.88 48.35 5.46 71.28 33.8 86.4 22.68 10.43-7.67 9.14-28.24 5.4-40-1.64-5.14-5.19-13.07-25.92-31.32-29.78-26.22-41.3-26.43-43.16-37.8-2.62-16 16.43-39.87 38.88-40 12.1 0 23.92 6.81 30.24 16.2 8.23 12.23 1 19.67 8.64 37.8 5.48 13 14.28 21.22 21.6 28.08 16.59 15.54 23.07 12.35 30.24 22.68 11.77 17 4.87 40.87 1.08 54-5.85 20.27-17.14 34.84-25.92 44.28-32.11 34.51-136.87 110.51-189 70.2-36.28-27.97-39.99-106.89-6.48-134.92z" fill="#343643"/><path d="M87.7 236.37c-6.9-1.53-9.82-29.36-3.24-32.4 4-1.85 13.69 4.46 15.12 14 1.55 10.47-7.52 19.4-11.88 18.4z" fill="#7cbdbf"/><path d="M428.98 856.29c-3.44-18.88 43.2-55.78 85.32-55.08 21.72.36 35.05 10.6 61.56 4.32a97.7 97.7 0 0 0 40-20.52c22.35-19.63 18.68-36.5 40-49.68 3-1.87 22.64-14 35.64-7.56 22.35 11.11 25.64 77.5 0 115.56-55.32 82.04-255.95 49.04-262.52 12.96z" fill="#343643"/><path d="M449.5 16.05c-12.59 8.58-1.54 64.35 33.48 94 18.23 15.41 26.25 9.61 50.76 28.08 21.6 16.24 20.32 24.5 51.84 60.44 25.54 29.15 38.76 43.91 60.48 52.92 24.55 10.19 55.74 14.56 59.4 6.48 7.16-15.83-101-57.91-103.68-123.12-.34-8.06.85-18.39-5.4-30.24-10.86-20.57-33.19-24.92-57.24-34.56-61.34-24.6-78.6-61.52-89.64-54z" fill="#fcb116"/><path d="M633.06 61.37c-4 1.06-7.52 16.81 1.08 23.76 3.93 3.18 10.73 4.78 13 2.16 4.43-5.15-8.81-27.27-14.08-25.92z" fill="#ffbdbf"/><path d="M576.94 745.05c19.59-17.12 43.08-50.67 40-94-1.19-16.56-3.37-46.74-28.08-63.72-20.85-14.33-53.71-16.48-75.6 2.16-13.26 11.29-25.74 33-19.44 50.76 8.51 24 42.48 16.14 57.24 42.12 16.46 29-9 68.36 2.16 74.52 6.19 3.48 17.84-6.7 23.72-11.84z" fill="#fcb116"/><path d="M351.22 100.29c-3.38.48-37.68 5.8-51.84 32.4-19.32 36.33 13.29 85.28 22.68 99.36 42.62 63.92 97.29 62.11 102.6 102.6 4.79 36.49-37.49 54.12-28.08 83.16 2.94 9.07 11.86 22.15 102.6 47.52 83.14 23.25 98.56 18.67 123.12 38.88 42.77 35.2 40 85.34 54 84.24 18.07-1.42 36.76-86.53 18.36-168.48-7.44-33.15-24.58-109.44-78.84-130.68-37.4-14.64-66.35 7.08-89.64-15.12-18.64-17.76-4.63-36-22.68-73.44-16.8-34.87-45.44-53.27-73.44-71.28-30.66-19.71-51.37-33.02-78.84-29.16z" fill="#7cbdbf"/><path d="M353.38 362.73c5.57-.26 11.76-14 9.72-25.92-3.7-21.62-34.74-39.61-50.76-30.24-15 8.8-14.39 40.32-7.56 43.2 5.87 2.47 14.41-17 25.92-15.12 12.84 2.1 14.87 28.45 22.68 28.08zm114.48 189c6.91 1.76 23.05-13.89 19.44-31.32-2.67-12.89-15.38-23-21.6-20.52-10.79 4.36-8.17 49.21 2.16 51.84z" fill="#343643"/><path d="M499.18 687.81c4.22-4.67 21.51-2.14 28.08 10.8 6.17 12.14-.35 27-6.48 28.08-9.94 1.68-28.24-31.55-21.6-38.88z" fill="#7cbdbf"/><path d="M6.7 741.81c12.38 17.87 87.86-24.5 103.68-2.16 8.25 11.65-9.84 26.64-6.48 51.84 5.88 44.19 73.08 85.29 99.36 69.12 20.66-12.71 21.94-64.44 0-86.4-13.14-13.16-26.69-7.68-36.72-21.6-14.67-20.35 6.68-42.59-4.32-64.8-12.26-24.74-57-33.94-90.72-23.76-45.56 13.75-74.44 63.84-64.8 77.76z" fill="#fcb116"/><path d="M157.9 534.45c11.78-2.7 36.22-8.3 43.2-25.92 8.26-20.83-16.13-37.71-8.64-62.64 5.57-18.52 27.13-36.2 47.52-32.4 18.33 3.42 31.55 23.42 32.4 41 1.27 26.24-25.53 34.1-23.76 58.32 1.8 24.68 30.55 29 30.24 49.68-.33 21.71-32.34 43.81-62.64 47.52-30.88 3.78-37.88-14.26-75.6-21.6-63.67-12.4-97.39 28.54-123.12 8.64-21.55-16.63-23.44-65.08-4.32-79.88 25.69-19.88 72.75 33.78 144.72 17.28z" fill="#7cbdbf"/><path d="M99.58 484.77c13.45 5.48 28-4.37 28.08-10.8.13-10-34.46-22.87-41-15.12-4.16 4.85.19 20.74 12.92 25.92zm177.12 367.2c-29.2-37.61 13.56-109 19.44-118.8 30.83-51.46 65.46-55.37 67-88.56 1.74-38.64-44.05-58.31-34.56-82.08 6.93-17.37 39.32-26.77 60.48-17.28 33.77 15.12 42.45 80.12 28 127.44-15.27 50.15-47.84 52.16-54 97.2-6.41 46.93 25.39 70.79 10.8 90.72-16.09 22.03-74.86 20.08-97.16-8.64z" fill="#ffbdbf"/><path d="M319.9 493.37c14.28 2.22 35.6-33.12 28.08-43.2-5.81-7.78-33.85-7.32-41 10.8-5.51 13.83 3.8 31.02 12.92 32.4z" fill="#fcb116"/><path d="M216.22 685.65c11.17 5 24.86-2 25.92-8.64 1.66-10.46-26.87-27.57-34.56-21.6-5.52 4.29-5.03 24.13 8.64 30.24z" fill="#343643"/><defs /></svg>