<svg xmlns="http://www.w3.org/2000/svg" viewBox="0 0 1052.63 147.25"  xmlns:v="https://vecta.io/nano"><defs><clipPath id="A" transform="translate(-14.16 -466.43)"><path d="M14.16 466.43h1052.63v147.25H14.16z" fill="none"/></clipPath></defs><g clip-path="url(#A)"><path d="M51.62 123.7c28.51 0 51.63-22.42 51.63-50.08S80.13 23.57 51.62 23.57 0 45.97 0 73.62s23.11 50.08 51.62 50.08" fill="#ffbdbf"/><g fill="#7cbdbf"><path d="M282.84 102.71c-16.77 0-30.37-13-30.37-29.09s13.64-29.05 30.37-29.05 30.36 13 30.36 29.08-13.56 29.06-30.36 29.06m474.73 0c-16.77 0-30.36-13-30.36-29.09s13.63-29.05 30.36-29.05 30.36 13 30.36 29.08-13.59 29.09-30.36 29.09"/></g><path d="M514.13 147.25c41.94 0 75.94-33 75.94-73.63S556.07 0 514.13 0s-75.94 33-75.94 73.62 34 73.63 75.94 73.63" fill="#fcb117"/><path d="M1001.01 123.7c28.51 0 51.62-22.42 51.62-50.08s-23.11-50.05-51.62-50.05-51.63 22.42-51.63 50.07 23.11 50.08 51.63 50.08" fill="#ffbdbf"/></g></svg>