<svg id="Layer_1" data-name="Layer 1" xmlns="http://www.w3.org/2000/svg" xmlns:xlink="http://www.w3.org/1999/xlink" viewBox="0 0 1052.63 147.25"><defs><style>.cls-1{fill:none;}.cls-2{clip-path:url(#clip-path);}.cls-3{fill:#ffbdbf;}.cls-4{fill:#7cbdbf;}.cls-5{fill:#fcb117;}</style><clipPath id="clip-path" transform="translate(-14.16 -466.43)"><rect class="cls-1" x="14.16" y="466.43" width="1052.63" height="147.25"/></clipPath></defs><title>dot break</title><g class="cls-2"><path class="cls-3" d="M65.78,590.13c28.51,0,51.63-22.42,51.63-50.08S94.29,490,65.78,490,14.16,512.4,14.16,540.05s23.11,50.08,51.62,50.08" transform="translate(-14.16 -466.43)"/><path class="cls-4" d="M297,569.14c-16.77,0-30.37-13-30.37-29.09S280.27,511,297,511s30.36,13,30.36,29.08S313.8,569.14,297,569.14" transform="translate(-14.16 -466.43)"/><path class="cls-4" d="M771.73,569.14c-16.77,0-30.36-13-30.36-29.09S755,511,771.73,511s30.36,13,30.36,29.08-13.59,29.09-30.36,29.09" transform="translate(-14.16 -466.43)"/><path class="cls-5" d="M528.29,613.68c41.94,0,75.94-33,75.94-73.63s-34-73.62-75.94-73.62-75.94,33-75.94,73.62,34,73.63,75.94,73.63" transform="translate(-14.16 -466.43)"/><path class="cls-3" d="M1015.17,590.13c28.51,0,51.62-22.42,51.62-50.08S1043.68,490,1015.17,490s-51.63,22.42-51.63,50.07,23.11,50.08,51.63,50.08" transform="translate(-14.16 -466.43)"/></g></svg>