<svg xmlns="http://www.w3.org/2000/svg" width="288" height="288"  xmlns:v="https://vecta.io/nano"><svg width="288" height="288"><svg width="288" height="288" transform="matrix(.9167 0 0 .9167 11.995 11.995)" viewBox="0 0 512 512"><path fill="#fcb116" d="M475.074 0H36.926C16.531 0 0 16.531 0 36.926v438.148C0 495.469 16.531 512 36.926 512h438.148C495.469 512 512 495.469 512 475.074V36.926C512 16.531 495.469 0 475.074 0zM181.609 387h-62.348V199.426h62.348zm-31.172-213.187h-.406c-20.922 0-34.453-14.402-34.453-32.402 0-18.406 13.945-32.41 35.273-32.41s34.453 14.004 34.859 32.41c0 18-13.531 32.402-35.273 32.402zM406.422 387h-62.34V286.652c0-25.219-9.027-42.418-31.586-42.418-17.223 0-27.48 11.602-31.988 22.801-1.648 4.008-2.051 9.609-2.051 15.215V387h-62.344V199.426h62.344v26.559c8.285-12.781 23.109-30.961 56.188-30.961 41.02 0 71.777 26.809 71.777 84.422zm0 0"/></svg></svg><defs /></svg>