<svg id="Layer_1" data-name="Layer 1" xmlns="http://www.w3.org/2000/svg" viewBox="0 0 709.44 894.4"><defs><style>.cls-1{fill:#ffbdbf;}.cls-2{fill:#7cbdbf;}.cls-3{fill:#343643;}.cls-4{fill:#fcb116;}.cls-5{fill:none;}</style></defs><title>Background2</title><path class="cls-1" d="M-29.08,166.76c-7.41-4.6,12.48-28.25,9.72-72.36-2-32.09-14-43.2-6.48-67C-20.25,9.78-8.08-1.59-1-8.2c3.88-3.63,20.18-18.29,47.52-25.92C92.17-46.85,151-35,155.6-13.6c3.47,16.22-24.69,35.19-27,36.72-23,15.2-37.53,6.6-56.16,19.44-17.2,11.85-14.82,26.05-29.16,54C20.64,140.7-19.76,172.54-29.08,166.76Z" transform="translate(53.06 39.37)"/><path class="cls-2" d="M174,78.2c-1.47-1.78-12.26-14.85-20.52-11.88-7.83,2.81-10.48,19-5.4,30.24.9,2,6.27,13.86,17.28,14,6.93.11,13.87-4.44,16.2-10.8C184.67,91.17,177.94,83,174,78.2Z" transform="translate(53.06 39.37)"/><path class="cls-3" d="M-18.28,255.32c20.61-17.24,53.29-13.55,68-11.88,48.35,5.46,71.28,33.8,86.4,22.68,10.43-7.67,9.14-28.24,5.4-40-1.64-5.14-5.19-13.07-25.92-31.32C85.82,168.58,74.3,168.37,72.44,157c-2.62-16,16.43-39.87,38.88-40,12.1,0,23.92,6.81,30.24,16.2,8.23,12.23,1,19.67,8.64,37.8,5.48,13,14.28,21.22,21.6,28.08,16.59,15.54,23.07,12.35,30.24,22.68,11.77,17,4.87,40.87,1.08,54-5.85,20.27-17.14,34.84-25.92,44.28-32.11,34.51-136.87,110.51-189,70.2C-48.08,362.27-51.79,283.35-18.28,255.32Z" transform="translate(53.06 39.37)"/><path class="cls-2" d="M34.64,197c-6.9-1.53-9.82-29.36-3.24-32.4,4-1.85,13.69,4.46,15.12,14C48.07,189.07,39,198,34.64,197Z" transform="translate(53.06 39.37)"/><path class="cls-3" d="M375.92,816.92c-3.44-18.88,43.2-55.78,85.32-55.08,21.72.36,35.05,10.6,61.56,4.32a97.7,97.7,0,0,0,40-20.52c22.35-19.63,18.68-36.5,40-49.68,3-1.87,22.64-14,35.64-7.56,22.35,11.11,25.64,77.5,0,115.56C583.12,886,382.49,853,375.92,816.92Z" transform="translate(53.06 39.37)"/><path class="cls-4" d="M396.44-23.32c-12.59,8.58-1.54,64.35,33.48,94,18.23,15.41,26.25,9.61,50.76,28.08C502.28,115,501,123.26,532.52,159.2c25.54,29.15,38.76,43.91,60.48,52.92,24.55,10.19,55.74,14.56,59.4,6.48,7.16-15.83-101-57.91-103.68-123.12-.34-8.06.85-18.39-5.4-30.24-10.86-20.57-33.19-24.92-57.24-34.56C424.74,6.08,407.48-30.84,396.44-23.32Z" transform="translate(53.06 39.37)"/><path class="cls-1" d="M580,22c-4,1.06-7.52,16.81,1.08,23.76,3.93,3.18,10.73,4.78,13,2.16C598.51,42.77,585.27,20.65,580,22Z" transform="translate(53.06 39.37)"/><path class="cls-4" d="M523.88,705.68c19.59-17.12,43.08-50.67,40-94-1.19-16.56-3.37-46.74-28.08-63.72-20.85-14.33-53.71-16.48-75.6,2.16-13.26,11.29-25.74,33-19.44,50.76,8.51,24,42.48,16.14,57.24,42.12,16.46,29-9,68.36,2.16,74.52C506.35,721,518,710.82,523.88,705.68Z" transform="translate(53.06 39.37)"/><path class="cls-2" d="M298.16,60.92c-3.38.48-37.68,5.8-51.84,32.4C227,129.65,259.61,178.6,269,192.68c42.62,63.92,97.29,62.11,102.6,102.6,4.79,36.49-37.49,54.12-28.08,83.16,2.94,9.07,11.86,22.15,102.6,47.52,83.14,23.25,98.56,18.67,123.12,38.88,42.77,35.2,40,85.34,54,84.24,18.07-1.42,36.76-86.53,18.36-168.48-7.44-33.15-24.58-109.44-78.84-130.68-37.4-14.64-66.35,7.08-89.64-15.12-18.64-17.76-4.63-36-22.68-73.44C433.64,126.49,405,108.09,377,90.08,346.34,70.37,325.63,57.06,298.16,60.92Z" transform="translate(53.06 39.37)"/><path class="cls-3" d="M300.32,323.36c5.57-.26,11.76-14,9.72-25.92-3.7-21.62-34.74-39.61-50.76-30.24-15,8.8-14.39,40.32-7.56,43.2,5.87,2.47,14.41-17,25.92-15.12C290.48,297.38,292.51,323.73,300.32,323.36Z" transform="translate(53.06 39.37)"/><path class="cls-3" d="M414.8,512.36c6.91,1.76,23.05-13.89,19.44-31.32-2.67-12.89-15.38-23-21.6-20.52C401.85,464.88,404.47,509.73,414.8,512.36Z" transform="translate(53.06 39.37)"/><path class="cls-2" d="M446.12,648.44c4.22-4.67,21.51-2.14,28.08,10.8,6.17,12.14-.35,27-6.48,28.08C457.78,689,439.48,655.77,446.12,648.44Z" transform="translate(53.06 39.37)"/><path class="cls-4" d="M-46.36,702.44c12.38,17.87,87.86-24.5,103.68-2.16,8.25,11.65-9.84,26.64-6.48,51.84,5.88,44.19,73.08,85.29,99.36,69.12,20.66-12.71,21.94-64.44,0-86.4-13.14-13.16-26.69-7.68-36.72-21.6-14.67-20.35,6.68-42.59-4.32-64.8-12.26-24.74-57-33.94-90.72-23.76C-27.12,638.43-56,688.52-46.36,702.44Z" transform="translate(53.06 39.37)"/><path class="cls-2" d="M104.84,495.08c11.78-2.7,36.22-8.3,43.2-25.92,8.26-20.83-16.13-37.71-8.64-62.64,5.57-18.52,27.13-36.2,47.52-32.4,18.33,3.42,31.55,23.42,32.4,41,1.27,26.24-25.53,34.1-23.76,58.32,1.8,24.68,30.55,29,30.24,49.68-.33,21.71-32.34,43.81-62.64,47.52-30.88,3.78-37.88-14.26-75.6-21.6-63.67-12.4-97.39,28.54-123.12,8.64C-57.11,541.05-59,492.6-39.88,477.8-14.19,457.92,32.87,511.58,104.84,495.08Z" transform="translate(53.06 39.37)"/><path class="cls-1" d="M46.52,445.4c13.45,5.48,28-4.37,28.08-10.8.13-10-34.46-22.87-41-15.12C29.44,424.33,33.79,440.22,46.52,445.4Z" transform="translate(53.06 39.37)"/><path class="cls-1" d="M223.64,812.6c-29.2-37.61,13.56-109,19.44-118.8,30.83-51.46,65.46-55.37,67-88.56,1.74-38.64-44.05-58.31-34.56-82.08,6.93-17.37,39.32-26.77,60.48-17.28C369.77,521,378.45,586,364,633.32c-15.27,50.15-47.84,52.16-54,97.2-6.41,46.93,25.39,70.79,10.8,90.72C304.71,843.27,245.94,841.32,223.64,812.6Z" transform="translate(53.06 39.37)"/><path class="cls-4" d="M266.84,454c14.28,2.22,35.6-33.12,28.08-43.2-5.81-7.78-33.85-7.32-41,10.8C248.41,435.43,257.72,452.62,266.84,454Z" transform="translate(53.06 39.37)"/><path class="cls-3" d="M163.16,646.28c11.17,5,24.86-2,25.92-8.64,1.66-10.46-26.87-27.57-34.56-21.6C149,620.33,149.49,640.17,163.16,646.28Z" transform="translate(53.06 39.37)"/><rect class="cls-5" x="53.06" y="39.37" width="612" height="792"/></svg>