<svg id="SvgjsSvg1001" width="288" height="288" xmlns="http://www.w3.org/2000/svg" version="1.1" xmlns:xlink="http://www.w3.org/1999/xlink" xmlns:svgjs="http://svgjs.com/svgjs"><defs id="SvgjsDefs1002"></defs><g id="SvgjsG1008" transform="matrix(0.916700005531311,0,0,0.916700005531311,11.995199203491211,11.995199203491211)"><svg xmlns="http://www.w3.org/2000/svg" width="288" height="288" enable-background="new 0 0 512 512" viewBox="0 0 512 512"><path d="M464.883 64.267h-417.766c-25.98 0-47.117 21.136-47.117 47.149 0 25.98 21.137 47.117 47.117 47.117h417.766c25.98 0 47.117-21.137 47.117-47.117 0-26.013-21.137-47.149-47.117-47.149zM464.883 208.867h-417.766c-25.98 0-47.117 21.136-47.117 47.149 0 25.98 21.137 47.117 47.117 47.117h417.766c25.98 0 47.117-21.137 47.117-47.117 0-26.013-21.137-47.149-47.117-47.149zM464.883 353.467h-417.766c-25.98 0-47.117 21.137-47.117 47.149 0 25.98 21.137 47.117 47.117 47.117h417.766c25.98 0 47.117-21.137 47.117-47.117 0-26.012-21.137-47.149-47.117-47.149z" fill="#ffffff" class="color000 svgShape"></path></svg></g></svg>